<?xml version="1.0" encoding="UTF-8" standalone="no"?><!DOCTYPE svg PUBLIC "-//W3C//DTD SVG 1.1//EN" "http://www.w3.org/Graphics/SVG/1.1/DTD/svg11.dtd"><svg width="100%" height="100%" viewBox="0 0 834 938" version="1.1" xmlns="http://www.w3.org/2000/svg" xmlns:xlink="http://www.w3.org/1999/xlink" xml:space="preserve" xmlns:serif="http://www.serif.com/" style="fill-rule:evenodd;clip-rule:evenodd;stroke-linejoin:round;stroke-miterlimit:2;"><rect x="0" y="1.333" width="833.333" height="935" style="fill:#001331;fill-rule:nonzero;"/><path d="M752.083,170.625l-46.958,-18.167c-11.5,-4.542 -19,3.75 -16,17.167c1.75,8.208 9,14.25 17.042,17.375l31.25,12.5c30,12.458 51.25,36.667 51.25,66.25l0,193.917c0,158.208 -87.542,261.458 -179.5,328.208c-66.375,47.875 -131.542,76.625 -192.417,98.833c-21.208,-5.333 -43.292,-15.167 -61.167,-22.875c-14.792,6.5 -29.75,8.25 -50.042,8.125c30.875,19.25 63,35.667 109.25,51.625c49,-16.042 126,-48.5 188.292,-90.042c102.958,-69.417 222.5,-178.292 222.5,-373.875l0,-193.917c0,-40.625 -25.583,-75.458 -73.5,-95.125Z" style="fill:url(#_Linear1);fill-rule:nonzero;"/><path d="M349.083,46.5l-265.292,120.875c-41.833,13.208 -71.792,49.25 -71.792,95.917l-0,196.375c0,140.042 67.125,248.542 166.292,330.875c29.25,24 59.833,54.458 118.125,57.458c95.375,5 174.167,-79.292 174.167,-185.042l0,-62.875c0,-45.042 18.75,-88.25 50.625,-115.417c4.167,1.917 8.917,3.083 13.833,3.083c20.917,0 32.917,-17.958 31.125,-34.792c-1.667,-15.625 -14.542,-27.75 -31.125,-27.75c-19.958,0 -31.25,16.958 -31.875,31.292c-39.458,29.375 -66.167,71.167 -66.167,138.375l0,68.083c0,78.375 -49.75,156.75 -135.208,155.333c-41.625,-0.75 -63.542,-17.083 -90.625,-38.875c-81.458,-66.667 -162.875,-158.542 -162.875,-319.792l-0,-196.333c0,-29.375 19.042,-53.958 47.458,-63.5l215.375,-103.375c11.625,-18.958 18.5,-30.125 37.958,-49.917Z" style="fill:url(#_Linear2);fill-rule:nonzero;"/><path d="M721.667,239.417l-78.292,-30.708c-11.75,-4.75 -21.708,-3.75 -23.625,-2.5c10,9 12.75,21.833 14.917,31.375l76.875,30.167l0,192.708c0,106.583 -48,188.542 -144.042,261.958c-34.25,25.792 -67.083,49.708 -113.333,67.667c-16.083,19.542 -27.333,35.667 -46.458,47.083c3.958,2.125 7.958,2.75 12.458,1.417c49.958,-19.458 101.375,-42.833 146.208,-75.333c85.208,-64.458 176.25,-148.333 176.25,-302.792l0,-194.708c0,-12 -7.375,-22.167 -20.958,-26.333Z" style="fill:url(#_Linear3);fill-rule:nonzero;"/><path d="M416.667,18.667c-52.25,47.208 -109.542,113.458 -109.542,198.667c0,57.083 29.333,106.542 48.75,131.542c9.917,13.333 20.208,28.667 26.458,42.417c5.958,-16.875 19.458,-41 44.833,-70.792l0,-90.292c12.583,-7.833 17.458,-23.125 13.292,-36.917c-4.833,-16.292 -20.333,-24.708 -33.875,-22.625c-16.333,2.417 -25.25,15.917 -23.875,31.458c1.083,10.833 7.625,21.083 16.5,26.75l0,125.958c-32.833,-39.333 -60.417,-79.792 -60.417,-137.5c0,-60.917 36.292,-114.875 77.875,-161.542c45.333,46.875 76.625,98.083 70.25,181.833l-2.083,21.208l38,-29.167c9.292,-77.417 -39.125,-153.792 -106.167,-211Z" style="fill:url(#_Linear4);fill-rule:nonzero;"/><path d="M289.5,158.042l-176.667,80.375c-16.333,1.917 -21.125,14.833 -21.125,25.417l0,194.542c0,111.708 53.583,212.333 167.083,299.083c18.333,13.542 33.667,14.25 50.292,13.542c47.958,-3.25 82.167,-54 82.167,-108.042l0,-86.208c0,-100.583 48.833,-201.708 144.25,-281.458l26.542,-23.542c4.375,1.458 8.417,2.167 13.458,2.167c23.583,0 33.583,-20.667 32.958,-32.958c-1,-17.167 -13.917,-31.625 -32,-31.625c-19.75,0 -31.083,16.458 -31.583,31.958c-71.5,54.458 -148.5,124.167 -175.167,259.25c-9.667,-16.875 -21.708,-28.958 -40.917,-45.292c-0.375,-18.125 -13.292,-30.042 -29.833,-30.042c-20.917,0 -31.625,17.333 -30.542,31.125c1.25,16.833 13.708,29.625 30.542,29.625c4.625,0 9.042,-1.125 13,-2.958c30.625,24.833 47.25,59.208 47.25,110.208l0,66.875c0,38.708 -21.667,80.375 -57.5,80.375c-13.958,0 -26.333,-9.167 -34.708,-16.042c-83.208,-62.667 -143.625,-142.417 -143.625,-266.042l0,-190.333c51.292,-18.208 113.875,-46.75 161.125,-71.25c1.417,-13.792 2.125,-25.208 5,-38.75Z" style="fill:url(#_Linear5);fill-rule:nonzero;"/><path d="M659.167,340.542c-54.333,-7.583 -105.583,2.708 -164.458,40.542c6.958,13.958 17.25,19 31.625,13.25c35.167,-19.458 65.125,-24.5 104.125,-24.083c-0.625,76.083 -41.958,151.042 -132.875,174.167c-3.125,10.5 -4.125,19.292 -5.125,33.958c94.75,-12.917 173.917,-98.125 170.792,-215.792l-1.875,-22.042l-2.208,0Z" style="fill:url(#_Linear6);fill-rule:nonzero;"/><path d="M168.708,340.542c54.333,-5.042 106.958,4.833 164.542,41.542c-8.167,15.5 -17.375,20.333 -30.792,14.75c-33.25,-19.083 -62.208,-25.958 -101.875,-26.583c-0.917,66.875 37.292,153.208 122.5,171.958c6.958,1.625 10.167,16 13.042,36.167c-94.75,-11.208 -168.917,-88.167 -169.542,-208.125l0.625,-27.708l1.5,-2Z" style="fill:url(#_Linear7);fill-rule:nonzero;"/><path d="M626.25,97.958l10,20.167c2.5,5.208 12.833,10.833 21.042,13c6,1.75 4.375,7.625 -1.542,8.875c-13.375,3 -21.375,8.875 -27.208,25.5c-3.583,9.333 -7.75,9.125 -11.583,-1.292c-6.458,-17.333 -12.375,-22.792 -24.083,-26.458c-8.75,-3 -5.708,-8.458 -0.375,-9.458c12.125,-2.75 22.458,-8.667 27.75,-27.458c2.083,-6.375 4.708,-7.833 6,-2.875Z" style="fill:url(#_Linear8);fill-rule:nonzero;"/><path d="M544.167,81c13.042,0 17.75,-11.583 16.958,-18.042c-1.292,-10 -8.875,-15.083 -17.208,-15.083c-10.333,0 -17.333,7.583 -17.333,16.5c0,9.25 7.292,16.625 17.583,16.625Z" style="fill:url(#_Linear9);fill-rule:nonzero;"/><defs><linearGradient id="_Linear1" x1="0" y1="0" x2="1" y2="0" gradientUnits="userSpaceOnUse" gradientTransform="matrix(362.5,904.166667,-904.166667,362.5,91.666667,58.333333)"><stop offset="0" style="stop-color:#2977b6;stop-opacity:1"/><stop offset="1" style="stop-color:#125891;stop-opacity:1"/></linearGradient><linearGradient id="_Linear2" x1="0" y1="0" x2="1" y2="0" gradientUnits="userSpaceOnUse" gradientTransform="matrix(362.5,904.166667,-904.166667,362.5,91.666667,58.333333)"><stop offset="0" style="stop-color:#2977b6;stop-opacity:1"/><stop offset="1" style="stop-color:#125891;stop-opacity:1"/></linearGradient><linearGradient id="_Linear3" x1="0" y1="0" x2="1" y2="0" gradientUnits="userSpaceOnUse" gradientTransform="matrix(0,634.625,-634.625,0,574.583333,204.958333)"><stop offset="0" style="stop-color:#ddcb7a;stop-opacity:1"/><stop offset="0.5" style="stop-color:#89c9a6;stop-opacity:1"/><stop offset="1" style="stop-color:#22b5ba;stop-opacity:1"/></linearGradient><linearGradient id="_Linear4" x1="0" y1="0" x2="1" y2="0" gradientUnits="userSpaceOnUse" gradientTransform="matrix(0,372.6375,-372.6375,0,415,18.654167)"><stop offset="0" style="stop-color:#c7e7b6;stop-opacity:1"/><stop offset="1" style="stop-color:#37d4cb;stop-opacity:1"/></linearGradient><linearGradient id="_Linear5" x1="0" y1="0" x2="1" y2="0" gradientUnits="userSpaceOnUse" gradientTransform="matrix(0,613.208333,-613.208333,0,354.666667,158.041667)"><stop offset="0" style="stop-color:#44d1c0;stop-opacity:1"/><stop offset="0.5" style="stop-color:#37d4cb;stop-opacity:1"/><stop offset="1" style="stop-color:#2a8896;stop-opacity:1"/></linearGradient><linearGradient id="_Linear6" x1="0" y1="0" x2="1" y2="0" gradientUnits="userSpaceOnUse" gradientTransform="matrix(0,240.5,-240.5,0,577.5,337.833333)"><stop offset="0" style="stop-color:#89c9a6;stop-opacity:1"/><stop offset="1" style="stop-color:#29d4c9;stop-opacity:1"/></linearGradient><linearGradient id="_Linear7" x1="0" y1="0" x2="1" y2="0" gradientUnits="userSpaceOnUse" gradientTransform="matrix(0,239.458333,-239.458333,0,251.333333,338.875)"><stop offset="0" style="stop-color:#37d4cb;stop-opacity:1"/><stop offset="1" style="stop-color:#2a8896;stop-opacity:1"/></linearGradient><linearGradient id="_Linear8" x1="0" y1="0" x2="1" y2="0" gradientUnits="userSpaceOnUse" gradientTransform="matrix(0,78.916667,-78.916667,0,626.666667,94.458333)"><stop offset="0" style="stop-color:#ebcf85;stop-opacity:1"/><stop offset="1" style="stop-color:#d9cb78;stop-opacity:1"/></linearGradient><linearGradient id="_Linear9" x1="0" y1="0" x2="1" y2="0" gradientUnits="userSpaceOnUse" gradientTransform="matrix(0,33.125,-33.125,0,544.166667,47.875)"><stop offset="0" style="stop-color:#ebcf85;stop-opacity:1"/><stop offset="1" style="stop-color:#d9cb78;stop-opacity:1"/></linearGradient></defs></svg>